<svg width="215" height="169" viewBox="0 0 215 169" fill="none" xmlns="http://www.w3.org/2000/svg">
<path d="M21.5508 136H12.3008V135.061H15.1914V115.26H12.3008V114.32H21.5508V115.26H18.6602V124.943L29.2109 115.26H26.3203V114.32H32.8604C32.8604 114.441 32.8483 114.561 32.8242 114.682C32.776 115.067 32.4749 115.26 31.9209 115.26C31.68 115.26 31.4512 115.284 31.2344 115.332C30.8008 115.452 30.1263 115.946 29.2109 116.813L22.9238 122.667L32.2461 135.061H33.1133C33.2337 135.061 33.3542 135.073 33.4746 135.097C33.86 135.169 34.0527 135.47 34.0527 136H28.6689L20.4307 124.979L18.6602 126.642V135.061H20.6113C20.7318 135.061 20.8522 135.073 20.9727 135.097C21.3581 135.169 21.5508 135.47 21.5508 136ZM67.5551 136H59.3529V135.061H61.7738L59.0639 128.051H51.5844L48.8744 135.061H50.7172C50.8376 135.061 50.9581 135.073 51.0785 135.097C51.4398 135.145 51.6205 135.446 51.6205 136H45.1527V135.061H47.4291L55.4867 114.32H57.1127L65.4232 135.061H66.6156C66.7361 135.061 66.8565 135.073 66.977 135.097C67.3624 135.145 67.5551 135.446 67.5551 136ZM58.6303 127.003L55.3061 118.367L51.9818 127.003H58.6303ZM95.0955 115.26V114.32H102.467V115.26H99.576V135.819L97.8416 136.181L83.6775 118.656V135.061H85.8094C85.9298 135.061 86.0503 135.073 86.1707 135.097C86.5561 135.169 86.7488 135.47 86.7488 136H79.3416V135.061H82.2322V115.26H79.3416V114.32H84.5809L98.1307 131.05V115.26H95.0955ZM115.193 114.32H125.382C127.887 114.32 130.079 114.91 131.958 116.091C134.993 118.018 136.511 121.041 136.511 125.16C136.511 128.34 135.487 130.929 133.44 132.929C131.32 134.976 128.61 136 125.31 136H115.193V135.061H118.083V115.26H115.193V114.32ZM125.31 115.26H121.552V135.061H125.382C130.2 135.036 132.621 131.688 132.645 125.016C132.645 123.209 132.464 121.643 132.103 120.318C131.163 116.946 128.899 115.26 125.31 115.26ZM160.004 136H150.754V135.061H153.645V115.26H150.754V114.32H160.004V115.26H157.114V124.293H167.845V115.26H164.955V114.32H174.205V115.26H171.314V135.061H173.265C173.386 135.061 173.506 135.073 173.627 135.097C174.012 135.169 174.205 135.47 174.205 136H164.955V135.061H167.845V125.341H157.114V135.061H159.065C159.185 135.061 159.306 135.073 159.426 135.097C159.812 135.169 160.004 135.47 160.004 136ZM209.008 136H200.806V135.061H203.227L200.517 128.051H193.037L190.327 135.061H192.17C192.29 135.061 192.411 135.073 192.531 135.097C192.893 135.145 193.073 135.446 193.073 136H186.605V135.061H188.882L196.939 114.32H198.565L206.876 135.061H208.068C208.189 135.061 208.309 135.073 208.43 135.097C208.815 135.145 209.008 135.446 209.008 136ZM200.083 127.003L196.759 118.367L193.435 127.003H200.083Z" fill="#2E2E2E"/>
<g filter="url(#filter0_d_516_130)">
<path d="M12.5 88.5C10.1667 92.6667 5.2 101.3 4 102.5H31L102.5 29.5L182.5 101.5H210.5L199 85.5H186L163 62V17.5H140.5V38.5L102.5 4L26 88.5H12.5Z" fill="#8FA550"/>
</g>
<g filter="url(#filter1_d_516_130)">
<path d="M104 35L35 105L177 103.5L104 35Z" fill="#EFEAE2"/>
</g>
<g filter="url(#filter2_d_516_130)">
<rect x="89" y="61" width="28" height="32" fill="#5A6276"/>
</g>
<path d="M116.5 61.4982C108.333 61.3315 91.5 61.0982 89.5 61.4982V93H116.5V61.4982Z" stroke="#EFEAE2"/>
<path d="M103 61V92.5" stroke="#EFEAE2"/>
<path d="M89 78H116.5" stroke="#EFEAE2"/>
<g filter="url(#filter3_d_516_130)">
<rect x="4" y="143" width="207" height="22" fill="#8FA550"/>
</g>
<path d="M20.752 161.033C19.4342 161.807 18.0449 162.201 16.584 162.215C14.5931 162.215 12.9818 161.556 11.75 160.238C10.5755 158.964 9.98828 157.388 9.98828 155.512C9.98828 153.965 10.4108 152.597 11.2559 151.408C12.4733 149.732 14.2279 148.895 16.5195 148.895C16.8203 148.895 17.1211 148.909 17.4219 148.938C18.7682 149.081 19.8496 149.467 20.666 150.098C20.666 149.754 20.6803 149.496 20.709 149.324C20.7806 149.109 20.9811 149.002 21.3105 149.002L21.375 153.02H20.8164C20.1289 150.699 18.7396 149.525 16.6484 149.496C15.9036 149.496 15.2305 149.682 14.6289 150.055C13.1393 150.971 12.3945 152.798 12.3945 155.533C12.3945 156.564 12.502 157.488 12.7168 158.305C13.2897 160.51 14.5716 161.613 16.5625 161.613C18.7253 161.599 20.1647 160.396 20.8809 158.004H21.4395V162.107C21.2676 162.107 21.1387 162.093 21.0527 162.064C20.8522 161.979 20.752 161.635 20.752 161.033ZM33.6658 148.895C35.1554 148.895 36.4731 149.317 37.6189 150.162C39.266 151.394 40.0896 153.191 40.0896 155.555C40.0896 157.56 39.4164 159.2 38.0701 160.475C36.824 161.635 35.3344 162.215 33.6013 162.215C32.0688 162.215 30.7081 161.749 29.5193 160.818C27.9295 159.544 27.1345 157.76 27.1345 155.469C27.1345 153.492 27.8077 151.874 29.1541 150.613C30.4145 149.467 31.9184 148.895 33.6658 148.895ZM33.6658 161.613C34.0095 161.613 34.339 161.577 34.6541 161.506C36.6736 160.99 37.6834 158.978 37.6834 155.469C37.669 151.516 36.3084 149.525 33.6013 149.496C33.4008 149.496 33.1931 149.51 32.9783 149.539C30.6723 149.84 29.5193 151.845 29.5193 155.555C29.5193 155.812 29.5265 156.07 29.5408 156.328C29.7127 159.852 31.0877 161.613 33.6658 161.613ZM54.7007 149.668V149.109H59.0835V149.668H57.3648V161.893L56.3335 162.107L47.9116 151.688V161.441H49.1792C49.2508 161.441 49.3224 161.449 49.3941 161.463C49.6232 161.506 49.7378 161.685 49.7378 162H45.3335V161.441H47.0523V149.668H45.3335V149.109H48.4487L56.5054 159.057V149.668H54.7007ZM73.5872 158.584C73.5872 159.472 73.2649 160.238 72.6204 160.883C71.7037 161.771 70.4147 162.215 68.7532 162.215C67.3209 162.215 66.0533 161.85 64.9505 161.119C64.9505 161.406 64.9361 161.613 64.9075 161.742C64.8359 161.943 64.6282 162.043 64.2845 162.043V157.574H64.972C64.9863 157.717 65.0006 157.868 65.0149 158.025C65.3444 160.417 66.5475 161.613 68.6243 161.613C69.1542 161.613 69.6412 161.52 70.0852 161.334C71.0305 160.904 71.5032 160.188 71.5032 159.186C71.5032 158.813 71.4173 158.469 71.2454 158.154C70.9016 157.553 70.0924 156.965 68.8177 156.393C67.4283 155.762 66.6119 155.376 66.3684 155.232C65.0364 154.473 64.3704 153.492 64.3704 152.289C64.3704 151.473 64.664 150.771 65.2513 150.184C66.1249 149.324 67.3424 148.895 68.9036 148.895C70.1783 148.895 71.3457 149.174 72.4055 149.732C72.4055 149.589 72.4199 149.467 72.4485 149.367C72.4915 149.124 72.6992 149.002 73.0716 149.002V152.783H72.3841C72.3984 151.967 72.1907 151.279 71.761 150.721C71.1451 149.904 70.2428 149.496 69.054 149.496C68.5957 149.496 68.1731 149.575 67.7864 149.732C66.8984 150.09 66.4544 150.728 66.4544 151.645C66.4544 151.988 66.5332 152.318 66.6907 152.633C67.0201 153.22 67.8151 153.793 69.0755 154.352C70.4791 154.982 71.2955 155.368 71.5247 155.512C72.8997 156.299 73.5872 157.324 73.5872 158.584ZM87.5108 162H81.3662V161.441H83.4073V149.668H82.419C81.2302 149.682 80.4353 150.42 80.0342 151.881L79.626 153.406H79.0245L79.1319 149.109H89.8526L89.9385 153.406H89.337L88.9287 151.881C88.542 150.42 87.7543 149.682 86.5655 149.668H85.4698V161.441H86.9522C87.0238 161.441 87.0954 161.449 87.167 161.463C87.3962 161.506 87.5108 161.685 87.5108 162ZM100.618 162H95.118V161.441H96.8367V149.668H95.118V149.109H101.649C102.766 149.109 103.712 149.367 104.485 149.883C105.416 150.527 105.882 151.387 105.882 152.461C105.882 152.891 105.796 153.313 105.624 153.729C105.137 154.817 104.206 155.54 102.831 155.898L106.268 161.441H106.977C107.063 161.441 107.142 161.449 107.214 161.463C107.4 161.492 107.493 161.671 107.493 162H104.141L100.747 156.092H98.8992V161.441H100.618V162ZM100.876 149.668H98.8992V155.469H100.962C101.578 155.469 102.108 155.29 102.552 154.932C103.268 154.373 103.626 153.564 103.626 152.504C103.626 152.046 103.54 151.609 103.368 151.193C102.91 150.176 102.079 149.668 100.876 149.668ZM111.448 149.668V149.109H116.926V149.668H115.229V157.059C115.229 157.918 115.315 158.663 115.487 159.293C115.917 160.84 116.991 161.613 118.71 161.613C118.81 161.613 118.917 161.613 119.032 161.613C121.209 161.456 122.297 159.952 122.297 157.102V149.668H120.579V149.109H124.768V149.668H123.049V156.973C123.049 157.832 122.963 158.584 122.792 159.229C122.247 161.219 120.736 162.215 118.258 162.215C114.892 162.201 113.195 160.525 113.167 157.188V149.668H111.448ZM140.368 161.033C139.05 161.807 137.66 162.201 136.2 162.215C134.209 162.215 132.597 161.556 131.366 160.238C130.191 158.964 129.604 157.388 129.604 155.512C129.604 153.965 130.026 152.597 130.871 151.408C132.089 149.732 133.843 148.895 136.135 148.895C136.436 148.895 136.737 148.909 137.037 148.938C138.384 149.081 139.465 149.467 140.282 150.098C140.282 149.754 140.296 149.496 140.325 149.324C140.396 149.109 140.597 149.002 140.926 149.002L140.991 153.02H140.432C139.744 150.699 138.355 149.525 136.264 149.496C135.519 149.496 134.846 149.682 134.244 150.055C132.755 150.971 132.01 152.798 132.01 155.533C132.01 156.564 132.118 157.488 132.332 158.305C132.905 160.51 134.187 161.613 136.178 161.613C138.341 161.599 139.78 160.396 140.496 158.004H141.055V162.107C140.883 162.107 140.754 162.093 140.668 162.064C140.468 161.979 140.368 161.635 140.368 161.033ZM154.807 162H148.662V161.441H150.703V149.668H149.715C148.526 149.682 147.731 150.42 147.33 151.881L146.922 153.406H146.32L146.428 149.109H157.149L157.234 153.406H156.633L156.225 151.881C155.838 150.42 155.05 149.682 153.861 149.668H152.766V161.441H154.248C154.32 161.441 154.391 161.449 154.463 161.463C154.692 161.506 154.807 161.685 154.807 162ZM167.914 162H162.414V161.441H164.133V149.668H162.414V149.109H167.914V149.668H166.195V161.441H167.355C167.427 161.441 167.499 161.449 167.57 161.463C167.799 161.506 167.914 161.685 167.914 162ZM180.054 148.895C181.544 148.895 182.862 149.317 184.007 150.162C185.655 151.394 186.478 153.191 186.478 155.555C186.478 157.56 185.805 159.2 184.459 160.475C183.212 161.635 181.723 162.215 179.99 162.215C178.457 162.215 177.097 161.749 175.908 160.818C174.318 159.544 173.523 157.76 173.523 155.469C173.523 153.492 174.196 151.874 175.543 150.613C176.803 149.467 178.307 148.895 180.054 148.895ZM180.054 161.613C180.398 161.613 180.727 161.577 181.043 161.506C183.062 160.99 184.072 158.978 184.072 155.469C184.058 151.516 182.697 149.525 179.99 149.496C179.789 149.496 179.582 149.51 179.367 149.539C177.061 149.84 175.908 151.845 175.908 155.555C175.908 155.812 175.915 156.07 175.929 156.328C176.101 159.852 177.476 161.613 180.054 161.613ZM201.089 149.668V149.109H205.472V149.668H203.753V161.893L202.722 162.107L194.3 151.688V161.441H195.568C195.639 161.441 195.711 161.449 195.783 161.463C196.012 161.506 196.126 161.685 196.126 162H191.722V161.441H193.441V149.668H191.722V149.109H194.837L202.894 159.057V149.668H201.089Z" fill="white"/>
<defs>
<filter id="filter0_d_516_130" x="0" y="0" width="214.5" height="106.5" filterUnits="userSpaceOnUse" color-interpolation-filters="sRGB">
<feFlood flood-opacity="0" result="BackgroundImageFix"/>
<feColorMatrix in="SourceAlpha" type="matrix" values="0 0 0 0 0 0 0 0 0 0 0 0 0 0 0 0 0 0 127 0" result="hardAlpha"/>
<feOffset/>
<feGaussianBlur stdDeviation="2"/>
<feComposite in2="hardAlpha" operator="out"/>
<feColorMatrix type="matrix" values="0 0 0 0 0 0 0 0 0 0 0 0 0 0 0 0 0 0 0.25 0"/>
<feBlend mode="normal" in2="BackgroundImageFix" result="effect1_dropShadow_516_130"/>
<feBlend mode="normal" in="SourceGraphic" in2="effect1_dropShadow_516_130" result="shape"/>
</filter>
<filter id="filter1_d_516_130" x="31" y="31" width="150" height="78" filterUnits="userSpaceOnUse" color-interpolation-filters="sRGB">
<feFlood flood-opacity="0" result="BackgroundImageFix"/>
<feColorMatrix in="SourceAlpha" type="matrix" values="0 0 0 0 0 0 0 0 0 0 0 0 0 0 0 0 0 0 127 0" result="hardAlpha"/>
<feOffset/>
<feGaussianBlur stdDeviation="2"/>
<feComposite in2="hardAlpha" operator="out"/>
<feColorMatrix type="matrix" values="0 0 0 0 0 0 0 0 0 0 0 0 0 0 0 0 0 0 0.25 0"/>
<feBlend mode="normal" in2="BackgroundImageFix" result="effect1_dropShadow_516_130"/>
<feBlend mode="normal" in="SourceGraphic" in2="effect1_dropShadow_516_130" result="shape"/>
</filter>
<filter id="filter2_d_516_130" x="85" y="57" width="36" height="40" filterUnits="userSpaceOnUse" color-interpolation-filters="sRGB">
<feFlood flood-opacity="0" result="BackgroundImageFix"/>
<feColorMatrix in="SourceAlpha" type="matrix" values="0 0 0 0 0 0 0 0 0 0 0 0 0 0 0 0 0 0 127 0" result="hardAlpha"/>
<feOffset/>
<feGaussianBlur stdDeviation="2"/>
<feComposite in2="hardAlpha" operator="out"/>
<feColorMatrix type="matrix" values="0 0 0 0 0 0 0 0 0 0 0 0 0 0 0 0 0 0 0.25 0"/>
<feBlend mode="normal" in2="BackgroundImageFix" result="effect1_dropShadow_516_130"/>
<feBlend mode="normal" in="SourceGraphic" in2="effect1_dropShadow_516_130" result="shape"/>
</filter>
<filter id="filter3_d_516_130" x="0" y="139" width="215" height="30" filterUnits="userSpaceOnUse" color-interpolation-filters="sRGB">
<feFlood flood-opacity="0" result="BackgroundImageFix"/>
<feColorMatrix in="SourceAlpha" type="matrix" values="0 0 0 0 0 0 0 0 0 0 0 0 0 0 0 0 0 0 127 0" result="hardAlpha"/>
<feOffset/>
<feGaussianBlur stdDeviation="2"/>
<feComposite in2="hardAlpha" operator="out"/>
<feColorMatrix type="matrix" values="0 0 0 0 0 0 0 0 0 0 0 0 0 0 0 0 0 0 0.25 0"/>
<feBlend mode="normal" in2="BackgroundImageFix" result="effect1_dropShadow_516_130"/>
<feBlend mode="normal" in="SourceGraphic" in2="effect1_dropShadow_516_130" result="shape"/>
</filter>
</defs>
</svg>
